<svg version="1.1" id="Layer_1" xmlns="http://www.w3.org/2000/svg" xmlns:xlink="http://www.w3.org/1999/xlink" x="0px" y="0px"
	 width="100%" viewBox="0 0 352 336" enable-background="new 0 0 352 336" xml:space="preserve">
<path fill="#000000" opacity="1.000000" stroke="none" 
	d="
M315.984924,231.971695 
	C318.392303,235.386459 322.284180,236.809158 325.566345,239.027985 
	C336.064453,246.124985 338.798828,252.626175 336.274384,265.016449 
	C331.941895,286.280853 310.797699,299.923187 290.957611,294.255005 
	C281.734375,291.619995 272.652313,278.382965 274.525635,270.189972 
	C277.553223,269.550049 278.966217,272.023438 280.682495,273.628418 
	C283.967834,276.700684 287.034424,280.008942 290.870636,282.437683 
	C298.035614,286.973999 304.340790,286.686279 309.602936,281.592926 
	C315.457520,275.926147 317.391876,266.301727 313.862335,260.045624 
	C311.071777,255.099289 306.690063,251.799118 302.000702,248.836075 
	C290.783081,241.748016 278.446594,237.117752 266.007263,232.831573 
	C258.026978,230.081833 252.690842,224.950424 249.376251,217.385986 
	C247.983047,214.206467 246.616821,210.997513 243.771988,207.515793 
	C246.064423,216.543945 249.554825,223.946487 255.380371,230.481232 
	C252.430389,231.949539 250.606567,230.360962 248.769623,229.587616 
	C239.593323,225.724396 231.953690,219.498672 224.228745,213.407745 
	C217.420349,208.039505 210.498489,202.849182 202.630859,199.050064 
	C192.964920,194.382614 183.422272,194.412750 173.836792,199.290680 
	C165.311600,203.629059 157.742172,209.342346 150.350922,215.321701 
	C143.466400,220.891159 136.399597,226.176163 128.151947,229.604218 
	C126.400047,230.332382 124.677757,231.746475 121.747200,230.211426 
	C126.629532,224.775238 130.470367,218.878296 131.562134,210.801590 
	C129.354752,212.930725 128.805969,215.174347 127.855591,217.139282 
	C124.140930,224.819458 118.682350,230.346481 110.317421,233.124908 
	C102.427361,235.745605 94.760269,239.016388 87.544830,243.288055 
	C73.022148,251.885712 72.360222,266.580109 79.143196,278.249084 
	C83.499878,285.744049 90.268959,287.514404 97.941086,283.658264 
	C102.962883,281.134216 106.742447,277.142242 110.739883,273.369354 
	C112.355515,271.844513 113.721298,269.663055 116.463257,270.074524 
	C117.920448,271.339508 117.517456,272.870789 117.226326,274.304718 
	C114.301857,288.709259 100.665810,297.834595 86.191620,295.104889 
	C56.566746,289.517883 44.489895,257.020782 63.394688,233.517227 
	C67.782898,228.061539 73.973618,224.977783 80.260162,222.200500 
	C82.086243,221.393768 83.918274,220.399628 85.847763,220.059189 
	C103.763985,216.897964 115.146660,205.353912 123.528084,190.783554 
	C118.663025,192.847610 101.123222,187.324265 96.185890,181.465988 
	C106.191170,174.981644 118.410332,180.607407 128.482452,175.128616 
	C124.475777,176.322952 121.303589,175.025070 118.544395,172.253860 
	C117.852516,171.558975 116.968521,170.968323 116.064636,170.584579 
	C101.494049,164.398834 95.685623,152.302551 93.702774,137.592804 
	C92.372269,127.722504 86.254738,121.078430 78.546478,115.668114 
	C74.484543,112.817093 69.746208,112.701241 65.091423,113.883041 
	C61.879448,114.698540 58.816280,116.084488 55.648643,117.096703 
	C53.989475,117.626892 52.102127,119.131142 50.546711,117.424500 
	C48.829372,115.540176 50.473312,113.614685 51.376801,111.952957 
	C55.564362,104.251060 62.855721,101.463379 70.894501,100.769638 
	C91.382584,99.001549 101.848671,105.419930 110.161827,124.236465 
	C112.515800,129.564636 114.570854,135.045380 117.241318,140.208755 
	C122.184746,149.766953 130.176682,154.443405 141.045105,154.811859 
	C146.119781,154.983887 151.730042,155.135742 154.284409,160.298950 
	C157.381149,155.000015 157.158585,148.893234 156.512985,142.603516 
	C156.309769,140.623764 155.826950,139.721069 154.308716,138.784805 
	C149.129822,135.591095 146.835815,130.573425 147.102142,124.801933 
	C147.484253,116.521614 147.919342,108.220947 150.741455,100.215660 
	C156.885666,82.786980 172.672455,70.578773 189.105408,70.905891 
	C205.763199,71.237473 222.132172,84.614532 226.972977,102.299469 
	C229.303406,110.813194 230.485641,119.551750 229.502457,128.450439 
	C229.093674,132.150360 227.279343,134.999573 224.532074,137.382401 
	C220.127701,141.202469 218.352386,150.310654 221.066910,155.591049 
	C221.932037,157.273911 222.392303,158.979019 222.391968,160.935974 
	C224.719910,155.356461 230.103668,154.960297 234.505020,154.935898 
	C249.462784,154.853043 257.575958,146.353317 262.922821,133.745178 
	C265.197906,128.380493 267.419922,122.982544 269.967590,117.746468 
	C275.286530,106.814827 284.519287,101.624374 296.313049,100.738968 
	C302.971497,100.239082 309.616608,100.374306 315.920380,103.245186 
	C320.672699,105.409492 324.338470,108.570084 326.386353,113.440460 
	C326.959076,114.802544 327.839325,116.281296 326.494263,117.597733 
	C325.356506,118.711258 323.989899,118.016624 322.741455,117.585564 
	C319.281403,116.390846 315.880127,114.988098 312.359802,114.013908 
	C306.183105,112.304611 300.473511,113.383369 295.542084,117.648438 
	C289.065887,123.249496 284.308807,129.816299 283.092041,138.625183 
	C282.571594,142.392914 281.364990,146.074203 280.360931,149.765045 
	C278.292236,157.369110 273.824158,163.131699 266.969269,167.068146 
	C264.081635,168.726364 260.960297,170.179977 258.518768,172.366928 
	C254.517014,175.951462 250.695236,176.396454 246.269547,173.488800 
	C250.749115,177.535385 256.367035,177.840027 261.924103,177.909882 
	C267.101501,177.974960 272.273407,177.758804 277.201019,179.685562 
	C278.938873,180.365097 281.505402,180.633743 279.642242,184.124878 
	C273.604828,187.191391 267.746887,189.245010 261.438721,191.087219 
	C256.499573,193.659378 253.818771,189.797394 250.428024,187.984512 
	C256.010498,193.955032 260.332153,200.836548 265.595184,206.969482 
	C268.439819,210.284317 271.505676,213.551163 275.754852,214.816147 
	C289.855988,219.014160 303.344452,224.568756 316.022491,232.015015 
	C316.009186,232.001389 315.984924,231.971695 315.984924,231.971695 
M201.461731,156.998764 
	C209.203461,155.727432 212.299973,152.298187 212.818222,144.495911 
	C208.613464,146.648041 204.379211,148.831741 200.128311,150.982513 
	C198.530090,151.791138 195.503967,150.954941 195.753006,153.858688 
	C195.974304,156.438919 198.398102,156.908295 201.461731,156.998764 
M172.813232,156.646606 
	C176.496063,157.504883 180.041138,158.054459 181.430725,152.604111 
	C175.090729,150.986649 169.868774,147.349640 163.666977,144.224792 
	C164.596222,150.446991 166.911942,154.487274 172.813232,156.646606 
M155.998398,125.890617 
	C155.374969,119.850471 155.500061,113.818771 156.078369,107.798119 
	C153.897125,115.579826 152.933121,123.350891 156.725266,131.035843 
	C156.516510,129.594116 156.307755,128.152390 155.998398,125.890617 
z"/>
<path fill="#000000" opacity="1.000000" stroke="none" 
	d="
M261.803162,191.067871 
	C267.746887,189.245010 273.604828,187.191391 279.489075,184.440948 
	C283.730591,182.931549 286.826935,180.086273 290.185852,177.704636 
	C303.183624,168.488602 316.821777,166.719482 331.668457,173.913620 
	C332.009430,173.998413 331.984406,173.971115 331.984406,173.971115 
	C333.326904,175.437943 334.599854,176.976227 336.022827,178.360321 
	C347.915070,189.927704 351.482635,203.895538 348.059967,219.888458 
	C347.852356,220.858582 347.529205,221.817841 347.142853,222.732742 
	C346.488953,224.281113 345.744385,225.909836 343.779907,225.994965 
	C342.043427,226.070190 341.092590,224.679672 340.452454,223.352676 
	C339.300690,220.965088 338.314972,218.489578 337.387207,216.003281 
	C334.915222,209.378616 331.353638,203.408981 326.608002,198.185852 
	C318.828491,189.623550 308.530762,189.500900 300.447327,197.775558 
	C296.701965,201.609528 293.716797,205.996628 290.827393,211.149216 
	C290.183807,212.096893 289.775726,212.521973 289.003662,213.049072 
	C286.410339,214.689972 284.240845,214.565063 281.636200,213.720917 
	C272.601227,210.792801 267.019196,203.830231 261.036407,197.158997 
	C258.558228,194.395615 258.778168,192.754745 261.803162,191.067871 
z"/>
<path fill="#000000" opacity="1.000000" stroke="none" 
	d="
M43.020283,209.988464 
	C39.900204,213.065002 39.493546,217.426056 37.719639,221.139481 
	C36.742218,223.185577 36.123917,226.028061 33.287857,225.927795 
	C30.438869,225.827118 29.941326,223.001450 29.270748,220.824982 
	C24.212648,204.407974 30.693237,184.891647 44.731735,175.016586 
	C55.651737,167.335159 67.277084,168.262909 78.956306,173.151047 
	C82.651947,174.697800 85.918427,177.049271 89.129448,179.449692 
	C96.400276,184.885071 104.166969,189.269501 113.251778,190.954529 
	C114.992752,191.277451 116.855186,191.778656 118.158371,194.011841 
	C111.906731,202.502960 105.178253,210.519180 94.463394,214.092896 
	C91.543549,215.066772 89.762436,213.831757 87.869850,211.976227 
	C83.684891,207.873154 81.244957,202.438217 76.966751,198.352234 
	C67.016579,188.849197 57.494968,189.274002 48.938934,200.068588 
	C46.673897,202.926239 44.296509,205.761261 43.070065,209.671097 
	C42.999443,210.007660 43.020283,209.988464 43.020283,209.988464 
z"/>
<path fill="#000000" opacity="1.000000" stroke="none" 
	d="
M289.367645,212.947052 
	C289.775726,212.521973 290.183807,212.096893 290.710052,211.498749 
	C294.251495,208.782578 295.686035,204.655457 298.546234,201.640579 
	C300.238068,199.857269 301.787018,199.106827 304.193451,200.263992 
	C310.542480,203.317062 316.850861,204.203857 322.863647,199.345535 
	C324.335266,198.156509 325.644135,198.651260 326.691925,200.059769 
	C327.681610,201.390167 328.775940,202.665604 329.592896,204.097229 
	C331.904114,208.147430 336.643707,211.861877 334.590363,216.904587 
	C331.796570,223.765732 326.368225,228.852158 319.964539,232.702805 
	C318.801453,233.402191 317.732086,232.606888 316.325439,232.087158 
	C315.984924,231.971695 316.009186,232.001389 315.856628,231.721771 
	C312.083496,226.801910 307.689667,223.113464 302.194489,220.924210 
	C298.675751,219.522354 295.045715,218.401001 291.473358,217.132065 
	C289.457245,216.415924 287.577667,215.594833 289.367645,212.947052 
z"/>
<path fill="#000000" opacity="1.000000" stroke="none" 
	d="
M42.992264,210.020432 
	C45.234734,206.955261 47.456387,203.856323 49.744907,200.807571 
	C51.044357,199.076431 52.413967,197.935745 54.679302,199.739471 
	C60.225441,204.155472 66.236328,203.414062 72.026672,200.490662 
	C75.053917,198.962265 76.972084,199.482895 78.801460,202.026779 
	C81.970848,206.434082 85.185036,210.809158 88.326187,215.123260 
	C86.994987,217.123917 85.021904,217.123032 83.340294,217.667374 
	C75.013969,220.362625 67.193756,223.956863 61.285557,230.674194 
	C59.039429,233.227921 57.095741,233.227509 54.507706,231.228714 
	C50.513977,228.144241 47.197330,224.485336 44.197891,220.466537 
	C41.934750,217.434296 41.001976,214.313110 42.931313,210.371674 
	C43.020283,209.988464 42.999443,210.007660 42.992264,210.020432 
z"/>
<path fill="#000000" opacity="1.000000" stroke="none" 
	d="
M63.823799,143.823044 
	C57.009060,150.533386 52.542336,158.196594 50.219101,167.123718 
	C49.891182,168.383759 49.492828,169.938965 48.578159,170.680176 
	C43.868484,174.496750 38.489174,177.420914 33.851017,181.768600 
	C32.879070,169.131119 36.024372,157.975616 43.996120,148.472443 
	C50.888313,140.256226 59.446148,134.773270 71.320572,133.268326 
	C70.494896,138.929199 66.538261,140.720398 63.823799,143.823044 
z"/>
<path fill="#000000" opacity="1.000000" stroke="none" 
	d="
M332.025116,174.008545 
	C328.510742,171.485413 326.896027,167.935760 325.697998,163.799347 
	C323.237000,155.301926 318.131134,148.372635 311.623535,142.418289 
	C309.261841,140.257385 306.404266,138.346008 305.656342,133.824493 
	C316.533630,134.033859 324.243378,139.375061 330.994324,146.270981 
	C340.512909,155.993942 343.986847,167.986481 343.853455,182.128967 
	C339.109528,179.683228 336.830627,175.561752 332.317383,174.077591 
	C331.984406,173.971115 332.009430,173.998413 332.025116,174.008545 
z"/>
</svg>